<svg xmlns="http://www.w3.org/2000/svg" xmlns:xlink="http://www.w3.org/1999/xlink" viewBox="0 0 987.07 881.03"><defs><style>.cls-1{fill:url(#radial-gradient);}</style><radialGradient id="radial-gradient" cx="493.54" cy="440.51" r="467.78" gradientUnits="userSpaceOnUse"><stop offset="0" stop-color="#8cc63f"/><stop offset="1" stop-color="#6b2c91"/></radialGradient></defs><title>Asset 2svg</title><g id="Layer_2" data-name="Layer 2"><g id="Layer_1-2" data-name="Layer 1"><path class="cls-1" d="M974,391.76l-198-343A97.77,97.77,0,0,0,691.57,0H295.5a97.77,97.77,0,0,0-84.44,48.75l-198,343a97.77,97.77,0,0,0,0,97.5l198,343A97.77,97.77,0,0,0,295.5,881H691.57A97.77,97.77,0,0,0,776,832.28l198-343A97.77,97.77,0,0,0,974,391.76ZM348.77,837.34,187,675.52,454,829.73a78.76,78.76,0,0,0,29.54,9.92l-63.1,16.91A74.46,74.46,0,0,1,348.77,837.34ZM77.49,513.56l59.23-221V600.92a78.76,78.76,0,0,0,6.18,30.54L96.71,585.28A74.46,74.46,0,0,1,77.49,513.56ZM566.58,24.47A74.46,74.46,0,0,1,638.3,43.69L800.11,205.5,533,51.3a78.75,78.75,0,0,0-29.54-9.92ZM460.12,819.21l-178.36-103,268.11,71.84a70.45,70.45,0,0,0,28,1.73l-50.94,29.41A67,67,0,0,1,460.12,819.21Zm0-757.39a67,67,0,0,1,66.83,0l178.36,103L437.2,93a70.88,70.88,0,0,0-28-1.74ZM838.2,486.05,766.36,217.95a70.88,70.88,0,0,0-12.49-25.11l50.92,29.4A67,67,0,0,1,838.2,280.1ZM231.27,660.25l-48-179L308.2,697.55a63.79,63.79,0,0,0,16.71,18.92l-51.11-13.7A60.31,60.31,0,0,1,231.27,660.25Zm145-541.17a60.31,60.31,0,0,1,58.09-15.57l179,48H363.6a63.79,63.79,0,0,0-24.74,5ZM755.8,220.78l48,179L678.87,183.48a63.79,63.79,0,0,0-16.71-18.92l51.11,13.69A60.31,60.31,0,0,1,755.8,220.78ZM623.47,719.69H456.64L673.81,661.5a57.41,57.41,0,0,0,20.34-10.12l-23.81,41.24A54.28,54.28,0,0,1,623.47,719.69ZM316.73,692.63,233.31,548.16l159,159a57.42,57.42,0,0,0,18.93,12.56H363.6A54.28,54.28,0,0,1,316.73,692.63ZM363.6,161.33H530.42L313.26,219.52a57.41,57.41,0,0,0-20.34,10.12l23.81-41.24A54.28,54.28,0,0,1,363.6,161.33ZM670.34,188.4l83.41,144.47-159-159a57.42,57.42,0,0,0-18.93-12.56h47.62A54.28,54.28,0,0,1,670.34,188.4ZM398.56,700.87,292.39,594.71,467.63,695.88A51.66,51.66,0,0,0,487,702.38l-41.41,11.1A48.85,48.85,0,0,1,398.56,700.87Zm-178-212.43,38.86-145V545.76a51.67,51.67,0,0,0,4.06,20l-30.31-30.31A48.85,48.85,0,0,1,220.57,488.44ZM281.1,262.53a48.85,48.85,0,0,1,34.45-34.45l145-38.86L285.34,290.39A51.67,51.67,0,0,0,270,303.93ZM554,165.9a48.87,48.87,0,0,1,34.51,14.26L694.68,286.32,519.44,185.15a51.67,51.67,0,0,0-19.39-6.51l41.41-11.1A48.44,48.44,0,0,1,554,165.9ZM471.61,689l-117-67.56L530.5,668.54a46.22,46.22,0,0,0,18.38,1.13L515.46,689A44,44,0,0,1,471.61,689ZM493.54,186.2a43.84,43.84,0,0,1,21.92,5.85l117,67.56L456.57,212.48a46.5,46.5,0,0,0-18.37-1.14l33.41-19.29A43.83,43.83,0,0,1,493.54,186.2ZM719.67,470.4,672.54,294.49a46.5,46.5,0,0,0-8.2-16.48l33.41,19.29a44,44,0,0,1,21.92,38ZM321.46,584.68,290,467.21l82,141.94a41.85,41.85,0,0,0,11,12.42l-33.54-9A39.57,39.57,0,0,1,321.46,584.68ZM665.61,296.34l31.48,117.47-82-141.94a41.85,41.85,0,0,0-11-12.42l33.54,9A39.57,39.57,0,0,1,665.61,296.34ZM578.78,623.68H469.33L611.82,585.5a37.67,37.67,0,0,0,13.35-6.64l-15.63,27.06A35.61,35.61,0,0,1,578.78,623.68ZM377.53,605.92l-54.73-94.79,104.3,104.3a37.67,37.67,0,0,0,12.42,8.24H408.29A35.61,35.61,0,0,1,377.53,605.92Zm30.76-348.58H517.74L375.25,295.52a37.67,37.67,0,0,0-13.35,6.64l15.63-27.06A35.61,35.61,0,0,1,408.29,257.34ZM609.54,275.1l54.73,94.79L560,265.58a37.66,37.66,0,0,0-12.43-8.24h31.25A35.61,35.61,0,0,1,609.54,275.1ZM431.22,611.33l-69.66-69.66,115,66.38a33.91,33.91,0,0,0,12.72,4.27l-27.17,7.28A32.05,32.05,0,0,1,431.22,611.33ZM314.44,472l25.5-95.15V509.56a33.9,33.9,0,0,0,2.66,13.15l-19.89-19.89A32.05,32.05,0,0,1,314.44,472ZM533.21,260.34a32.06,32.06,0,0,1,22.64,9.35l69.65,69.65L510.53,273a33.9,33.9,0,0,0-12.72-4.27L525,261.42A31.78,31.78,0,0,1,533.21,260.34ZM479.15,603.53,402.37,559.2l115.41,30.93a30.32,30.32,0,0,0,12.06.74l-21.93,12.66A28.85,28.85,0,0,1,479.15,603.53Zm14.38-329.87a28.77,28.77,0,0,1,14.38,3.84l76.78,44.33L469.29,290.9a30.52,30.52,0,0,0-12.06-.75l21.92-12.66A28.76,28.76,0,0,1,493.54,273.66ZM641.9,460.12,611,344.71a30.51,30.51,0,0,0-5.38-10.81l21.92,12.66a28.85,28.85,0,0,1,14.38,24.91Zm-243,93.29a26,26,0,0,1-18.31-18.31L360,458l53.77,93.13a27.46,27.46,0,0,0,7.2,8.15l-22-5.9ZM606.43,345.92,627.08,423l-53.77-93.13a27.46,27.46,0,0,0-7.2-8.15l22,5.9A26,26,0,0,1,606.43,345.92Zm-57,214.77H477.65l93.49-25a24.71,24.71,0,0,0,8.76-4.36L569.65,549A23.37,23.37,0,0,1,549.47,560.69ZM417.42,549l-35.91-62.19L450,555.28a24.71,24.71,0,0,0,8.15,5.41H437.6A23.37,23.37,0,0,1,417.42,549Zm20.18-228.7h71.81l-93.48,25a24.71,24.71,0,0,0-8.76,4.36L417.42,332A23.36,23.36,0,0,1,437.6,320.34Zm132,11.65,35.91,62.19-68.44-68.44a24.72,24.72,0,0,0-8.15-5.41h20.5A23.37,23.37,0,0,1,569.65,332Zm-117,220.6L407,506.89l75.43,43.55a22.25,22.25,0,0,0,8.34,2.8L472.91,558A21,21,0,0,1,452.65,552.59ZM376,461.14l16.73-62.43v87.1a22.24,22.24,0,0,0,1.75,8.63l-13-13A21,21,0,0,1,376,461.14ZM519.57,322.3a21,21,0,0,1,14.86,6.14l45.7,45.7-75.44-43.55a22.24,22.24,0,0,0-8.35-2.8L514.17,323A20.85,20.85,0,0,1,519.57,322.3ZM503,547.47a18.92,18.92,0,0,1-18.87,0l-50.37-29.08,75.72,20.29a19.24,19.24,0,0,0,8,.46ZM493.54,331a18.87,18.87,0,0,1,9.44,2.52l50.37,29.08-75.72-20.29a20,20,0,0,0-7.91-.49l14.38-8.3A18.87,18.87,0,0,1,493.54,331Zm97.34,122.34-20.29-75.72a20,20,0,0,0-3.53-7.1l14.38,8.3a18.93,18.93,0,0,1,9.44,16.35Zm-171.41,49.2L405.92,452l35.28,61.1a18,18,0,0,0,4.72,5.35l-14.44-3.87A17,17,0,0,1,419.46,502.57ZM567.61,378.45,581.16,429l-35.28-61.1a18,18,0,0,0-4.72-5.35l14.44,3.87A17,17,0,0,1,567.61,378.45ZM543.47,511.72a15.33,15.33,0,0,1-13.24,7.64H483.11l61.34-16.43a16.22,16.22,0,0,0,5.75-2.86l-6.73,11.65Zm-99.87,0L420,470.91l44.9,44.9a16.21,16.21,0,0,0,5.35,3.55H456.84A15.33,15.33,0,0,1,443.6,511.72Zm13.24-150.05H504L442.62,378.1a16.21,16.21,0,0,0-5.75,2.86l6.73-11.65A15.33,15.33,0,0,1,456.84,361.66Zm86.63,7.64L567,410.11l-44.9-44.9a16.22,16.22,0,0,0-5.35-3.55h13.45A15.33,15.33,0,0,1,543.47,369.31Zm10.06,121.47a13.8,13.8,0,0,1-9.73,9.73l-41,11,49.5-28.58a14.59,14.59,0,0,0,4.33-3.82ZM466.71,514l-30-30,49.49,28.57a14.58,14.58,0,0,0,5.48,1.84L480,517.61A13.79,13.79,0,0,1,466.71,514Zm-50.27-60,11-41v57.15a14.59,14.59,0,0,0,1.15,5.66L420,467.34A13.8,13.8,0,0,1,416.44,454ZM510.61,363a13.8,13.8,0,0,1,9.75,4l30,30-49.49-28.57a14.59,14.59,0,0,0-5.48-1.84l11.7-3.13A13.7,13.7,0,0,1,510.61,363ZM487.34,510.69,454.29,491.6,504,504.92a12.61,12.61,0,0,0,5.22.3l-9.47,5.47A12.42,12.42,0,0,1,487.34,510.69Zm6.19-142a12.38,12.38,0,0,1,6.19,1.65l33.05,19.08L483.1,376.11a13.12,13.12,0,0,0-5.19-.32l9.44-5.45A12.38,12.38,0,0,1,493.54,368.69ZM557.4,449l-13.31-49.68a13.14,13.14,0,0,0-2.32-4.66l9.44,5.45a12.42,12.42,0,0,1,6.19,10.72ZM444.94,481.23,436,448.05l23.15,40.09a11.82,11.82,0,0,0,3.1,3.51l-9.48-2.54A11.18,11.18,0,0,1,444.94,481.23Zm97.2-81.43L551,433l-23.15-40.09a11.82,11.82,0,0,0-3.1-3.51l9.48,2.54A11.18,11.18,0,0,1,542.13,399.79Zm-24.52,92.45H486.7l40.24-10.78a10.64,10.64,0,0,0,3.77-1.88l-4.41,7.65A10.06,10.06,0,0,1,517.61,492.25Zm-56.84-5-15.46-26.77,29.46,29.46a10.63,10.63,0,0,0,3.51,2.33h-8.83A10.06,10.06,0,0,1,460.77,487.23Zm8.69-98.45h30.91l-40.24,10.78a10.63,10.63,0,0,0-3.77,1.88l4.42-7.65A10.06,10.06,0,0,1,469.46,388.78Zm56.84,5,15.46,26.77L512.3,391.11a10.64,10.64,0,0,0-3.51-2.33h8.83A10.06,10.06,0,0,1,526.3,393.8Zm-50.36,95-19.67-19.67,32.47,18.75a9.57,9.57,0,0,0,3.59,1.21l-7.67,2.06A9,9,0,0,1,475.94,488.76Zm-33-39.37,7.2-26.87V460a9.57,9.57,0,0,0,.76,3.72l-5.62-5.62A9.05,9.05,0,0,1,443,449.39Zm61.79-59.77a9.06,9.06,0,0,1,6.4,2.64l19.67,19.67-32.47-18.75a9.58,9.58,0,0,0-3.6-1.2l7.68-2.06A9,9,0,0,1,504.74,389.63Zm-15.27,96.93L467.79,474l32.6,8.73a8.28,8.28,0,0,0,3.43.2l-6.21,3.59A8.14,8.14,0,0,1,489.47,486.55Zm4.06-93.17a8.13,8.13,0,0,1,4.06,1.08L519.28,407l-32.6-8.73a8.62,8.62,0,0,0-3.41-.21l6.2-3.58A8.12,8.12,0,0,1,493.54,393.39Zm41.9,52.66-8.73-32.6a8.62,8.62,0,0,0-1.52-3.06l6.19,3.58a8.15,8.15,0,0,1,4.06,7Zm-73.79,21.18-5.83-21.77L471,471.76a7.75,7.75,0,0,0,2,2.3l-6.22-1.67A7.33,7.33,0,0,1,461.65,467.23Zm63.77-53.43,5.83,21.77-15.19-26.3a7.76,7.76,0,0,0-2-2.3l6.22,1.67A7.33,7.33,0,0,1,525.42,413.8Zm-16.09,60.66H477.74a6.6,6.6,0,0,1-5.7-3.29l-15.8-27.36a6.6,6.6,0,0,1,0-6.58L472,409.86a6.6,6.6,0,0,1,5.7-3.29h31.59a6.6,6.6,0,0,1,5.7,3.29l15.8,27.36a6.6,6.6,0,0,1,0,6.58L515,471.16A6.6,6.6,0,0,1,509.33,474.45Zm-31.59-69.08a7.75,7.75,0,0,0-3,.61l4.55-4.55a7.33,7.33,0,0,1,7.06-1.89l21.77,5.83Zm-22.53,31.25a7.75,7.75,0,0,0-1,2.91l-1.67-6.22a7.33,7.33,0,0,1,1.89-7.06l15.93-15.93Zm54.13,39a7.75,7.75,0,0,0,3-.61l-4.55,4.55a7.34,7.34,0,0,1-7.06,1.89L479,475.65Zm22.53-31.25a7.76,7.76,0,0,0,1-2.91l1.67,6.22a7.34,7.34,0,0,1-1.89,7.06L516.68,470.7Zm-78.35-19.08a8.62,8.62,0,0,0-1.88,2.85V421a8.15,8.15,0,0,1,4.06-7l21.68-12.52ZM451.63,460V435l8.73,32.6a8.62,8.62,0,0,0,1.52,3.06l-6.19-3.58A8.15,8.15,0,0,1,451.63,460Zm81.92-4.31a8.61,8.61,0,0,0,1.88-2.85V460a8.15,8.15,0,0,1-4.06,7l-21.69,12.52Zm-78.6-43a9.57,9.57,0,0,0-2.84,2.51l2.06-7.68a9.05,9.05,0,0,1,6.38-6.38l26.87-7.2Zm77.16,55.63a9.57,9.57,0,0,0,2.84-2.51l-2.06,7.68a9.05,9.05,0,0,1-6.38,6.38l-26.87,7.2Zm4-51,5.62,5.62h0a9.05,9.05,0,0,1,2.34,8.72l-7.2,26.88V421A9.58,9.58,0,0,0,536.16,417.29ZM441.37,449a10.63,10.63,0,0,0-.26,4.21l-4.42-7.65a10.06,10.06,0,0,1,0-10l15.46-26.77ZM545.7,432.06a10.64,10.64,0,0,0,.26-4.21l4.41,7.65a10.05,10.05,0,0,1,0,10L534.92,472.3ZM469.46,387a11.82,11.82,0,0,0-4.59.93l6.94-6.94a11.16,11.16,0,0,1,10.76-2.88L515.75,387Zm-34.34,47.63a11.82,11.82,0,0,0-1.49,4.44l-2.54-9.48A11.18,11.18,0,0,1,434,418.78l24.29-24.29Zm82.5,59.48a11.82,11.82,0,0,0,4.59-.93l-6.93,6.93A11.18,11.18,0,0,1,504.5,503l-33.17-8.89ZM552,446.44a11.81,11.81,0,0,0,1.49-4.44l2.54,9.48h0a11.17,11.17,0,0,1-2.88,10.76l-24.29,24.29ZM432.54,417.35a13.13,13.13,0,0,0-2.87,4.33v-10.9a12.42,12.42,0,0,1,6.19-10.72L468.91,381Zm-2.87,52.89V432.07L443,481.75a13.13,13.13,0,0,0,2.32,4.66L435.86,481A12.42,12.42,0,0,1,429.67,470.24Zm124.86-6.56a13.13,13.13,0,0,0,2.87-4.33v10.89A12.42,12.42,0,0,1,551.21,481L518.16,500Zm-119.8-65.56a14.59,14.59,0,0,0-4.33,3.83l3.13-11.7a13.8,13.8,0,0,1,9.73-9.73l41-11Zm123.77,7,8.56,8.56A13.8,13.8,0,0,1,570.63,427l-11,41V410.79A14.59,14.59,0,0,0,558.51,405.13ZM414,453.4a16.21,16.21,0,0,0-.4,6.41l-6.73-11.65a15.33,15.33,0,0,1,0-15.29l23.56-40.8Zm159-25.78a16.21,16.21,0,0,0,.4-6.41l6.73,11.65a15.33,15.33,0,0,1,0,15.29L556.61,489ZM456.84,358.88a18,18,0,0,0-7,1.42l10.57-10.57a17,17,0,0,1,16.41-4.4l50.57,13.55ZM404.5,431.48a18,18,0,0,0-2.27,6.76l-3.87-14.44a17,17,0,0,1,4.4-16.41l37-37Zm125.74,90.66a18,18,0,0,0,7-1.42l-10.57,10.57a17,17,0,0,1-16.41,4.4l-50.57-13.55Zm52.34-72.59a18,18,0,0,0,2.27-6.76l3.87,14.44a17,17,0,0,1-4.4,16.41l-37,37Zm-182-44.33a20,20,0,0,0-4.38,6.6V395.21a18.93,18.93,0,0,1,9.44-16.35L456,349.78Zm-4.38,80.61V427.65l20.29,75.72a20,20,0,0,0,3.53,7.09l-14.38-8.3A18.92,18.92,0,0,1,396.19,485.82Zm190.31-10a20,20,0,0,0,4.38-6.6v16.61a18.92,18.92,0,0,1-9.44,16.34l-50.38,29.08ZM403.91,375.89a22.24,22.24,0,0,0-6.6,5.83l4.78-17.83a21,21,0,0,1,14.83-14.83l62.43-16.73ZM583.16,505.13a22.24,22.24,0,0,0,6.6-5.83L585,517.13A21,21,0,0,1,570.15,532l-62.43,16.73Zm9.4-118.56,13,13A21,21,0,0,1,611,419.88l-16.73,62.43v-87.1A22.24,22.24,0,0,0,592.56,386.58ZM372.35,460.16a24.71,24.71,0,0,0-.61,9.76l-10.25-17.76a23.36,23.36,0,0,1,0-23.3l35.91-62.19Zm242.37-39.29a24.71,24.71,0,0,0,.6-9.76l10.25,17.76a23.37,23.37,0,0,1,0,23.3l-35.91,62.19ZM437.6,316.1a27.46,27.46,0,0,0-10.65,2.16l16.11-16.11a25.93,25.93,0,0,1,25-6.7l77.07,20.65ZM357.82,426.74A27.46,27.46,0,0,0,354.37,437l-5.9-22a26,26,0,0,1,6.7-25l56.42-56.42ZM549.47,564.93a27.45,27.45,0,0,0,10.65-2.16L544,578.88a26,26,0,0,1-25,6.7l-77.07-20.65Zm79.78-110.65A27.46,27.46,0,0,0,632.7,444l5.9,22a26,26,0,0,1-6.7,25l-56.42,56.42Zm-277.4-67.57a30.5,30.5,0,0,0-6.67,10.07V371.46a28.85,28.85,0,0,1,14.38-24.91l76.78-44.33Zm-6.67,122.86V420.91l30.92,115.41a30.51,30.51,0,0,0,5.38,10.81l-21.92-12.66A28.85,28.85,0,0,1,345.17,509.56Zm290.06-15.25a30.51,30.51,0,0,0,6.67-10.07v25.31a28.85,28.85,0,0,1-14.38,24.91l-76.78,44.33ZM356.94,342a33.89,33.89,0,0,0-10.06,8.88l7.28-27.17a32.05,32.05,0,0,1,22.6-22.6l95.15-25.5Zm273.2,197a33.9,33.9,0,0,0,10.06-8.89l-7.28,27.17a32.05,32.05,0,0,1-22.6,22.6l-95.15,25.5Zm14.33-180.7,19.89,19.89a32,32,0,0,1,8.27,30.87l-25.5,95.15V371.46A33.9,33.9,0,0,0,644.47,358.31ZM308.83,470.45a37.67,37.67,0,0,0-.92,14.88l-15.63-27.06a35.61,35.61,0,0,1,0-35.51L347,328Zm369.41-59.88a37.66,37.66,0,0,0,.92-14.88l15.63,27.06a35.61,35.61,0,0,1,0,35.51l-54.73,94.79Zm-270-159.69A41.85,41.85,0,0,0,392,254.18l24.55-24.55a39.53,39.53,0,0,1,38.12-10.21l117.47,31.48ZM286.69,419.53a41.85,41.85,0,0,0-5.27,15.71l-9-33.54a39.57,39.57,0,0,1,10.21-38.11l86-86ZM578.78,630.14A41.85,41.85,0,0,0,595,626.85L570.47,651.4a39.56,39.56,0,0,1-38.11,10.21L414.88,630.14ZM700.38,461.5a41.85,41.85,0,0,0,5.27-15.71l9,33.54a39.57,39.57,0,0,1-10.21,38.12l-86,86Zm-422.81-103a46.5,46.5,0,0,0-10.17,15.34V335.27a44,44,0,0,1,21.92-38l117-67.56ZM267.4,545.76V410.63l47.13,175.91a46.5,46.5,0,0,0,8.2,16.48l-33.41-19.29A44,44,0,0,1,267.4,545.76Zm442.1-23.24a46.5,46.5,0,0,0,10.17-15.34v38.58a44,44,0,0,1-21.92,38l-117,67.56Zm-7.76,68.11a51.67,51.67,0,0,0,15.33-13.53L706,618.5a48.85,48.85,0,0,1-34.45,34.45l-145,38.86Zm21.85-275.41,30.31,30.31a48.85,48.85,0,0,1,12.61,47.06l-38.86,145V335.27A51.67,51.67,0,0,0,723.59,315.23ZM212,486.14a57.42,57.42,0,0,0-1.41,22.68l-23.81-41.24a54.28,54.28,0,0,1,0-54.13L270.2,269Zm563-91.26a57.41,57.41,0,0,0,1.41-22.67l23.81,41.24a54.27,54.27,0,0,1,0,54.13L716.87,612.05ZM178.27,408.53a63.8,63.8,0,0,0-8,23.93l-13.7-51.11a60.31,60.31,0,0,1,15.57-58.09L303.17,192.19Zm445.2,321a63.79,63.79,0,0,0,24.74-5l-37.42,37.42a60.31,60.31,0,0,1-58.09,15.57l-179-48Zm185.33-257a63.79,63.79,0,0,0,8-23.93l13.69,51.11A60.31,60.31,0,0,1,815,557.77L683.9,688.84Zm-644.43-157a70.88,70.88,0,0,0-15.5,23.37V280.1a67,67,0,0,1,33.41-57.87l178.36-103Zm-15.5,285.4V395l71.84,268.11a70.88,70.88,0,0,0,12.49,25.11l-50.92-29.4A67,67,0,0,1,148.87,600.92ZM822.7,565.5a70.88,70.88,0,0,0,15.5-23.37v58.79a67,67,0,0,1-33.41,57.87l-178.36,103ZM176.21,211.71a78.76,78.76,0,0,0-23.36,20.63l16.91-63.1a74.46,74.46,0,0,1,52.5-52.5l221-59.23ZM810.86,669.32a78.75,78.75,0,0,0,23.36-20.63l-16.91,63.1a74.46,74.46,0,0,1-52.5,52.5l-221,59.23Zm33.31-419.76,46.19,46.19a74.46,74.46,0,0,1,19.22,71.72l-59.23,221V280.1A78.76,78.76,0,0,0,844.17,249.56ZM763,56.25l127.13,220.2L647.84,34.14A87.5,87.5,0,0,0,619,15h72.59A82.73,82.73,0,0,1,763,56.25Zm-539,0A82.73,82.73,0,0,1,295.5,15H549.76l-331,88.69a87.51,87.51,0,0,0-31,15.42Zm-198,343,127.13-220.2-88.69,331a87.51,87.51,0,0,0-2.15,34.56L26,481.76A82.73,82.73,0,0,1,26,399.26ZM224,824.78,96.92,604.58,339.23,846.88A87.5,87.5,0,0,0,368.08,866H295.5A82.73,82.73,0,0,1,224,824.78Zm539,0A82.73,82.73,0,0,1,691.57,866H437.31l331-88.69a87.51,87.51,0,0,0,31-15.42Zm198-343L833.93,702l88.69-331a87.52,87.52,0,0,0,2.15-34.56l36.29,62.86A82.73,82.73,0,0,1,961.06,481.76Z"/></g></g></svg>